<?xml version="1.0" encoding="UTF-8" standalone="no"?>
<svg
   xmlns:dc="http://purl.org/dc/elements/1.1/"
   xmlns:cc="http://creativecommons.org/ns#"
   xmlns:rdf="http://www.w3.org/1999/02/22-rdf-syntax-ns#"
   xmlns:svg="http://www.w3.org/2000/svg"
   xmlns="http://www.w3.org/2000/svg"
   xmlns:sodipodi="http://sodipodi.sourceforge.net/DTD/sodipodi-0.dtd"
   xmlns:inkscape="http://www.inkscape.org/namespaces/inkscape"
   version="1.1"
   id="Layer_1"
   x="0px"
   y="0px"
   width="100%"
   viewBox="0 0 1024 1024"
   enable-background="new 0 0 1024 1024"
   xml:space="preserve"
   sodipodi:docname="file.svg"
   inkscape:version="0.92.5 (2060ec1f9f, 2020-04-08)"><metadata
   id="metadata83"><rdf:RDF><cc:Work
       rdf:about=""><dc:format>image/svg+xml</dc:format><dc:type
         rdf:resource="http://purl.org/dc/dcmitype/StillImage" /></cc:Work></rdf:RDF></metadata><defs
   id="defs81" /><sodipodi:namedview
   pagecolor="#ffffff"
   bordercolor="#666666"
   borderopacity="1"
   objecttolerance="10"
   gridtolerance="10"
   guidetolerance="10"
   inkscape:pageopacity="0"
   inkscape:pageshadow="2"
   inkscape:window-width="1848"
   inkscape:window-height="1016"
   id="namedview79"
   showgrid="false"
   inkscape:zoom="0.65186406"
   inkscape:cx="530.90049"
   inkscape:cy="529.43905"
   inkscape:window-x="72"
   inkscape:window-y="27"
   inkscape:window-maximized="1"
   inkscape:current-layer="Layer_1" />
<path
   d=" M645.164795,523.264771   C608.223694,543.239563 571.528381,562.898804 535.076050,582.998596   C527.495178,587.178589 521.027588,586.524231 514.001892,582.495361   C465.177673,554.497498 416.333588,526.534058 367.450317,498.639465   C343.442413,484.939667 319.391907,471.312164 295.233673,457.880280   C289.831146,454.876465 287.503723,451.211639 287.519653,444.803192   C287.713684,366.826416 287.697754,288.848846 287.523010,210.871979   C287.509521,204.853058 289.640839,201.339203 294.874420,198.687485   C355.187866,168.128204 415.439636,137.447205 475.711212,106.805214   C485.800507,101.675827 495.985382,96.727180 505.970642,91.403404   C511.037994,88.701653 515.584961,88.999557 520.577881,91.547852   C550.686890,106.914948 580.881592,122.114044 611.020447,137.422913   C651.252197,157.858429 691.435974,178.388672 731.708740,198.742905   C736.271545,201.048996 738.399475,204.055054 738.394470,209.253281   C738.312439,294.894897 738.321289,380.536652 738.399292,466.178253   C738.403381,470.644684 737.074158,473.612732 732.946045,475.825928   C703.741272,491.483307 674.634705,507.323608 645.164795,523.264771  M604.447083,412.151459   C601.538574,410.528015 598.558533,409.018829 595.738586,407.253876   C591.696167,404.723755 590.273804,399.159607 592.402893,394.918610   C594.308105,391.123779 599.075867,389.537872 603.678894,391.232239   C604.766907,391.632690 605.792297,392.218353 606.817261,392.772888   C641.829773,411.716461 676.833740,430.675964 711.858887,449.596161   C714.423279,450.981415 716.860474,452.761169 720.213135,453.391571   C720.213135,376.965759 720.213135,300.980255 720.213135,224.877045   C717.136414,225.039963 715.101257,226.579697 712.955261,227.756210   C703.900513,232.720505 694.882812,237.752533 685.856201,242.768173   C648.157959,263.715210 610.458923,284.661041 572.767639,305.620667   C568.918152,307.761322 565.413025,307.252014 562.234802,304.351593   C556.824402,299.414154 558.097534,291.683746 564.998108,287.842010   C600.073181,268.314789 635.167419,248.821976 670.249268,229.307007   C682.596313,222.438751 694.927368,215.541748 708.204712,208.133942   C645.707703,176.482117 584.080261,145.270737 522.415161,114.040253   C520.988098,116.919724 521.372925,118.784378 521.369934,120.584709   C521.337585,139.917465 521.363953,159.250320 521.334778,178.583069   C521.327576,183.358261 518.855774,186.551514 514.860229,186.255035   C508.500946,185.783203 503.814209,183.850800 503.960327,175.790497   C504.331512,155.318115 504.083679,134.834518 504.083679,113.607094   C442.172760,145.119202 380.687866,176.414444 318.527435,208.053528   C320.938232,209.532486 322.581604,210.605743 324.284027,211.575272   C350.916046,226.742050 377.561066,241.885986 404.189972,257.058197   C411.286743,261.101685 413.461090,266.232574 410.393372,271.447174   C407.273804,276.749878 401.845093,277.449768 394.752411,273.464203   C394.461945,273.300995 394.166656,273.146393 393.876221,272.983185   C366.144623,257.398865 338.417328,241.806946 310.670044,226.250641   C309.288757,225.476242 307.990448,224.223633 305.830078,224.772644   C305.830078,292.885681 305.830078,361.017181 305.830078,429.875763   C308.126129,428.648651 309.748108,427.856720 311.297241,426.941589   C321.479553,420.926239 331.637482,414.869690 341.820831,408.856201   C349.277588,404.452881 356.674896,399.938019 364.262512,395.771179   C369.388367,392.956268 374.385193,394.138245 377.121002,398.230804   C379.749512,402.162872 378.591614,407.384583 374.189392,410.861359   C365.893036,417.413666 355.845703,420.937042 346.966217,426.522064   C336.453461,433.134460 325.628784,439.250885 314.090729,446.084930   C377.640961,482.451965 440.278168,518.296509 503.898651,554.703735   C503.898651,551.663391 503.898651,549.876465 503.898682,548.089539   C503.898987,508.424164 503.897064,468.758789 503.900970,429.093414   C503.902039,418.427094 503.834808,407.759735 503.967560,397.094940   C504.034760,391.694489 505.464996,386.699371 510.854309,384.184723   C518.800537,380.477020 526.337036,386.038300 526.341370,395.528656   C526.366211,450.193787 526.352600,504.858917 526.402771,559.523987   C526.404480,561.398743 525.607300,563.516602 527.726257,565.564087   C586.933411,533.485229 646.215698,501.365631 706.635864,468.629547   C671.782043,449.351196 638.444153,430.911377 604.447083,412.151459  z"
   id="path2"
   stroke="none"
   fill="#000000"
   opacity="1.000000" />
<path
   d="m 271.48117,802.20825 c -6.03656,21.55371 -18.55751,35.98322 -41.119,39.55444 -13.51039,2.13856 -26.18393,-0.10253 -36.97007,-9.30981 -0.75778,-0.64691 -1.53158,-1.27899 -2.33821,-1.8623 -0.23823,-0.17231 -0.61457,-0.15369 -1.70311,-0.39325 0,3.05005 5.4e-4,5.95916 -7e-5,8.86828 -0.003,12.49231 -0.10655,24.9859 0.0537,37.47614 0.0474,3.69372 -1.23126,5.00128 -4.91553,4.87762 -6.48857,-0.21759 -13.00354,-0.31085 -19.48141,0.0336 -4.85399,0.25812 -5.316,-2.21277 -5.30797,-6.0993 0.0902,-43.63959 0.0667,-87.27942 0.0736,-130.91919 8e-4,-4.99695 0.11968,-9.99768 -0.0419,-14.98938 -0.10328,-3.18952 1.11805,-4.57434 4.33625,-4.53461 6.99459,0.0865 13.99276,0.1167 20.98587,-0.0174 3.27929,-0.0629 4.49396,1.32299 4.31626,4.4848 -0.14856,2.64306 -0.0305,5.30108 -0.0305,7.87829 2.05229,0.78296 2.64455,-0.77887 3.49423,-1.60821 22.70017,-22.1532 60.79753,-15.41785 74.46103,13.16553 8.18802,17.12908 8.91861,34.83892 4.1868,53.39483 m -77.86856,-42.06348 c -5.44556,11.81324 -5.28621,24.20899 -3.27081,36.61438 2.08818,12.85309 11.36306,21.44147 23.53241,21.79065 12.64958,0.3628 22.86883,-5.794 26.7613,-18.76684 3.16844,-10.55981 3.04802,-21.30139 1.02764,-32.03796 -1.99376,-10.59498 -9.48566,-18.52112 -18.90293,-20.27997 -12.46806,-2.32868 -22.75558,1.96655 -29.14761,12.67974 z"
   id="path4"
   inkscape:connector-curvature="0"
   style="opacity:1;fill:#000000;stroke:none" />
<path
   d="m 779.23779,878.81128 c -0.65204,3.06982 -2.79217,2.5108 -4.50458,2.52795 -6.65966,0.067 -13.32745,-0.16217 -19.97821,0.0897 -3.96514,0.15021 -5.21563,-1.32141 -5.16326,-5.19641 0.17321,-12.81891 0.0651,-25.64154 0.0646,-38.46277 -10e-4,-35.46649 0.0876,-70.93353 -0.10705,-106.39898 -0.0273,-4.97077 1.25805,-6.90515 6.42309,-6.5528 5.96649,0.40692 11.99097,0.28882 17.97345,0.0217 4.08527,-0.18249 5.78662,1.18079 5.47559,5.38129 -0.16388,2.2138 -0.66809,4.61468 0.51373,6.65338 1.1319,0.48822 1.74463,-0.11402 2.36212,-0.65735 29.25372,-25.7395 69.49506,-13.33582 78.69257,24.67743 5.22986,21.61523 3.45819,42.82495 -9.55902,61.65161 -15.81287,22.86975 -48.21717,26.72467 -69.46296,8.82813 -0.4956,-0.41748 -1.05029,-0.76496 -2.67913,-1.93964 0,16.90723 0,32.901 -0.0509,49.37677 m 52.409,-87.75519 c 0.5321,-6.14484 0.44958,-12.28863 -0.008,-18.43371 -1.05371,-14.13807 -9.96619,-24.55536 -21.65094,-25.29261 -16.86524,-1.06402 -26.57978,6.07031 -29.82361,21.90491 -1.72144,8.40308 -1.19525,16.91345 -0.6875,25.3396 0.77899,12.92896 10.30212,22.93384 23.26245,23.8606 11.60358,0.82965 22.29156,-4.01539 26.71582,-17.79981 0.90893,-2.83191 1.44714,-5.78265 2.1922,-9.57898 z"
   id="path6"
   inkscape:connector-curvature="0"
   style="opacity:1;fill:#000000;stroke:none" />
<path
   d="m 414.60986,862.995 c -0.006,-37.1482 0.002,-73.79743 -0.0287,-110.44672 -0.006,-7.31732 -0.0544,-14.63788 -0.28705,-21.95044 -0.12812,-4.02789 0.82974,-6.15594 5.55472,-5.83405 6.13534,0.41791 12.32501,0.24561 18.4826,0.0519 3.60883,-0.11352 5.76031,0.51526 5.23291,4.88019 -0.26947,2.23023 0.40744,4.57483 0.63574,6.6756 1.57346,0.72376 2.26215,-0.22241 2.86658,-0.90216 18.9921,-21.35822 65.74417,-18.45801 77.6611,21.92041 5.71387,19.36053 4.63104,38.44867 -4.00244,56.83478 -14.92929,31.79364 -55.46686,36.33349 -75.53876,16.24554 -0.2102,-0.21039 -0.57885,-0.26245 -1.56994,-0.68616 0,17.12323 0,33.95801 0,51.18317 -9.9029,0 -19.11811,0 -29.00641,0 0,-5.92462 0,-11.69885 -3.1e-4,-17.97204 m 28.74109,-73.73993 c -0.11123,4.04034 0.83261,7.92132 1.97663,11.73345 3.05181,10.16974 11.36718,16.62922 22.4732,17.61542 9.59207,0.85181 19.53104,-4.42242 23.91705,-13.22955 6.20768,-12.46497 6.387,-25.66473 3.20441,-38.86121 -3.16888,-13.13971 -11.56515,-19.3695 -24.73791,-19.36877 -12.83509,6.7e-4 -21.41431,6.71973 -25.012,19.39892 -2.03073,7.15686 -1.86938,14.45691 -1.82138,22.71174 z"
   id="path8"
   inkscape:connector-curvature="0"
   style="opacity:1;fill:#000000;stroke:none" />
<path
   d="m 663.1156,813.93115 c 6.76007,5.00995 14.22034,5.65235 21.74744,4.51563 6.96826,-1.05237 12.16028,-5.16474 15.33807,-11.57477 1.06873,-2.15576 2.06354,-3.95789 5.1217,-3.7616 6.47132,0.41553 12.96796,0.42975 19.45362,0.62891 5.88916,0.18085 6.38782,0.8775 4.27551,6.52026 -6.461,17.25934 -19.30756,27.12268 -36.91284,30.91156 -10.15704,2.18585 -20.53754,2.19397 -30.64642,-0.47204 -15.90815,-4.19544 -26.97077,-14.45587 -33.06806,-29.43451 -9.14477,-22.46515 -8.93829,-44.81854 3.98676,-65.98853 9.0617,-14.84222 23.35345,-21.27972 40.14965,-22.54199 11.07386,-0.83222 21.99109,0.33948 32.02106,5.62103 16.67676,8.7818 23.89319,23.78778 26.71033,41.51221 0.78131,4.91577 1.02045,9.88861 1.11908,14.89105 0.0865,4.38764 -1.40576,5.74433 -5.76752,5.7085 -21.98211,-0.18103 -43.96643,-0.0848 -65.95001,-0.0822 -7.68805,9.2e-4 -7.61853,-0.006 -6.36975,7.31379 1.07532,6.30364 3.92749,11.59796 8.79138,16.23272 m 20.63947,-68.45367 c -2.49518,-0.0552 -5.00287,0.0299 -7.48328,-0.19068 -9.25183,-0.82312 -21.32446,8.1922 -21.83588,22.62757 14.28821,0 28.57428,-0.046 42.85962,0.0297 3.98883,0.0211 4.89887,-1.59277 3.82166,-5.28931 -2.52082,-8.65045 -7.59619,-14.66107 -17.36212,-17.17724 z"
   id="path10"
   inkscape:connector-curvature="0"
   style="opacity:1;fill:#000000;stroke:none" />
<path
   d="m 339.05139,817.18304 c 14.87467,2.09748 20.56873,-0.84313 26.84677,-13.5523 0.75049,-1.51935 1.38535,-2.88587 3.50519,-2.97058 8.82544,-0.35242 17.54147,0.78546 26.92841,1.44482 -1.74707,9.99152 -5.84571,18.4267 -12.87449,25.03619 -17.048,16.03119 -37.36343,19.18024 -58.91342,12.15863 -20.41244,-6.651 -31.40268,-22.16992 -34.88443,-42.98071 -2.42813,-14.51324 -1.61667,-28.84784 4.66165,-42.47015 9.42393,-20.44769 26.24567,-29.72815 47.95145,-31.13837 12.7511,-0.82837 24.87103,1.52417 35.48456,9.22998 10.03613,7.28668 15.65372,17.33118 18.57633,29.62396 -9.29203,2.40076 -18.39512,1.76288 -27.45109,1.67365 -2.37387,-0.0234 -2.60681,-2.28204 -3.48394,-3.77649 -4.13098,-7.03839 -9.27106,-12.67096 -18.13272,-13.12988 -12.54569,-0.64966 -19.95105,3.67834 -24.38328,15.49658 -4.67108,12.4552 -5.28961,25.36462 -1.09304,38.13251 2.74103,8.33947 8.21911,14.37628 17.26205,17.22216 z"
   id="path12"
   inkscape:connector-curvature="0"
   style="opacity:1;fill:#000000;stroke:none" />
<path
   d="m 585.9704,729.87176 c 7.90607,-5.69763 16.43756,-7.72686 25.73517,-7.24523 3.04608,0.15777 4.63763,1.09741 4.58783,4.38733 -0.10071,6.65978 -0.0714,13.32293 0.007,19.98345 0.0345,2.93323 -0.79163,4.22553 -4.11341,3.69556 -6.01422,-0.95966 -11.97894,0.0449 -17.68383,1.93823 -10.18146,3.37909 -15.52454,10.82416 -17.19178,21.2555 -1.19079,7.4505 -0.92895,14.93548 -0.94391,22.41961 -0.026,12.98981 -0.14532,25.98145 0.0463,38.96833 0.058,3.9342 -1.21661,5.31091 -5.15381,5.15081 -6.31781,-0.25683 -12.66479,-0.28766 -18.97864,0.0167 -4.34253,0.20923 -5.74133,-1.21552 -5.71612,-5.65186 0.17267,-30.47522 0.0904,-60.95184 0.0913,-91.42804 1.2e-4,-4.66302 0.11657,-9.32953 -0.0314,-13.98779 -0.0998,-3.14337 1.00965,-4.56897 4.30475,-4.50653 6.99201,0.13251 13.99085,0.15558 20.98157,-0.005 3.57037,-0.082 4.6452,1.4837 4.5033,4.81751 -0.1261,2.96356 -0.38819,5.99243 0.83825,9.59686 2.65204,-3.54474 5.22052,-6.69049 8.71735,-9.40528 z"
   id="path14"
   inkscape:connector-curvature="0"
   style="opacity:1;fill:#000000;stroke:none" />











<path
   d=" M283.877838,528.074219   C277.139587,519.410034 277.793640,508.022064 285.120850,501.801727   C292.321991,495.688416 304.791748,496.227539 311.061890,502.923370   C317.963104,510.293152 317.837952,521.340576 310.772003,528.507446   C303.143951,536.244446 292.687866,536.180969 283.877838,528.074219  z"
   id="path38"
   stroke="none"
   fill="#000000"
   opacity="1.000000" />


<path
   d=" M343.427399,557.294312   C333.564270,554.198975 329.451324,546.615112 332.577911,538.054260   C335.427734,530.251221 343.894318,526.481934 351.746826,529.520447   C357.907562,531.904297 362.050262,538.887756 360.946198,545.028137   C359.610229,552.458130 354.229706,557.171204 346.850952,557.356689   C345.853424,557.381836 344.854065,557.333130 343.427399,557.294312  z"
   id="path44"
   stroke="none"
   fill="#000000"
   opacity="1.000000" />

<path
   d=" M291.286316,567.931519   C294.538635,561.776245 299.156494,559.033691 304.608307,559.754761   C310.017609,560.470215 314.026154,563.906555 315.268402,568.893188   C316.621674,574.325500 314.767639,579.386475 310.299530,582.456970   C306.485260,585.078125 299.804413,585.336121 296.090424,582.806519   C290.866821,579.248718 289.757721,574.173401 291.286316,567.931519  z"
   id="path48"
   stroke="none"
   fill="#000000"
   opacity="1.000000" />
<path
   d=" M538.929810,277.579102   C540.583496,289.770569 536.962708,297.439484 528.208374,300.971161   C518.233337,304.995361 507.496521,300.762482 503.180847,291.104340   C499.001495,281.751282 502.715790,270.726593 511.533600,266.312012   C521.253906,261.445587 532.351868,264.925171 537.555237,274.488892   C538.028809,275.359375 538.376953,276.298126 538.929810,277.579102  z"
   id="path50"
   stroke="none"
   fill="#000000"
   opacity="1.000000" />
<path
   d=" M475.534485,346.228027   C464.324463,342.569519 460.076019,336.267609 460.675079,324.765381   C461.097443,316.655365 466.825867,310.249512 475.625702,308.435730   C482.808746,306.955231 488.834167,309.486908 493.306183,315.034576   C498.307983,321.239532 499.025452,328.418396 495.970978,335.693298   C493.147156,342.418976 487.768341,345.938751 480.453308,346.350006   C478.962555,346.433807 477.460205,346.311920 475.534485,346.228027  z"
   id="path52"
   stroke="none"
   fill="#000000"
   opacity="1.000000" />
<path
   d=" M415.300720,381.236938   C402.767731,377.898499 397.264099,370.927124 398.509247,360.470367   C399.533203,351.871155 406.322266,345.189423 414.558258,344.675018   C425.063751,344.018860 432.419220,348.998047 434.906097,358.449219   C437.024628,366.500580 432.733124,375.464081 424.878662,379.217438   C422.004608,380.590820 418.978241,381.491516 415.300720,381.236938  z"
   id="path54"
   stroke="none"
   fill="#000000"
   opacity="1.000000" />
<path
   d=" M466.905457,272.299316   C459.495850,275.762238 452.779358,274.807678 447.071106,269.838867   C442.194244,265.593781 440.079895,259.930115 441.521149,253.276413   C443.310822,245.013962 448.849426,239.838821 457.127991,238.840485   C463.867126,238.027786 472.149200,242.931732 474.878510,249.350800   C478.084198,256.890411 476.277679,264.774231 470.082855,270.105011   C469.207062,270.858643 468.203156,271.463379 466.905457,272.299316  z"
   id="path56"
   stroke="none"
   fill="#000000"
   opacity="1.000000" />
<path
   d=" M551.248901,331.778564   C556.039490,337.899994 556.798584,345.462097 553.411133,351.117615   C550.055115,356.720612 542.775452,360.111725 536.792175,358.859344   C529.324036,357.296143 524.494751,352.239502 523.275574,344.706421   C522.314026,338.765198 525.523438,332.071106 530.795288,329.022095   C537.611816,325.079651 544.206726,325.886810 551.248901,331.778564  z"
   id="path58"
   stroke="none"
   fill="#000000"
   opacity="1.000000" />
<path
   d=" M488.938538,224.912918   C489.822662,216.017227 493.861053,210.173264 502.579346,208.255524   C511.078156,206.386078 519.375000,212.655746 521.062439,222.231918   C522.487976,230.321320 515.614807,239.528992 507.553497,240.329285   C497.247986,241.352386 491.532593,236.740982 488.938538,224.912918  z"
   id="path60"
   stroke="none"
   fill="#000000"
   opacity="1.000000" />
<path
   d=" M470.767609,404.265808   C460.801483,403.636658 454.522980,397.863190 454.076233,389.326904   C453.669861,381.561157 458.597473,375.228271 466.384735,373.508118   C474.810028,371.647095 482.143097,376.171722 484.646820,384.776154   C486.836914,392.302795 482.595612,400.451813 475.023010,403.187317   C473.779877,403.636414 472.468170,403.895691 470.767609,404.265808  z"
   id="path62"
   stroke="none"
   fill="#000000"
   opacity="1.000000" />
<path
   d=" M413.856873,209.672302   C422.866943,211.581711 426.825073,216.303864 426.320526,224.049591   C425.907745,230.386078 420.866425,235.667740 414.604919,236.323792   C406.785553,237.143066 400.320984,231.970856 399.684814,224.386353   C398.979675,215.979675 404.391785,210.182007 413.856873,209.672302  z"
   id="path64"
   stroke="none"
   fill="#000000"
   opacity="1.000000" />
<path
   d=" M422.075073,292.957092   C430.463623,286.298035 442.691101,290.126648 444.265411,301.002655   C445.110382,306.840149 442.242035,312.184875 437.167603,314.650879   C431.756165,317.280609 425.701752,316.263214 421.583557,312.032043   C417.311127,307.642395 416.473206,301.856140 419.421478,296.402924   C420.044739,295.250153 420.988220,294.270508 422.075073,292.957092  z"
   id="path66"
   stroke="none"
   fill="#000000"
   opacity="1.000000" />
<path
   d=" M429.242645,438.614532   C421.947266,441.559143 416.509705,440.146790 412.737518,434.628448   C409.612122,430.056396 410.064667,423.399902 413.771667,419.416290   C417.681854,415.214325 424.558838,414.411346 429.770355,417.548279   C437.273804,422.064758 437.177032,432.384766 429.242645,438.614532  z"
   id="path68"
   stroke="none"
   fill="#000000"
   opacity="1.000000" />
<path
   d=" M593.676636,357.275513   C586.939148,357.230957 582.758179,354.668518 581.087280,349.846069   C579.369019,344.887054 580.809204,339.292572 584.585693,336.255859   C588.468079,333.133972 593.899719,332.715729 598.062256,335.357727   C602.283447,338.036926 603.953125,342.038635 603.251099,346.882904   C602.474365,352.242371 599.815369,356.149994 593.676636,357.275513  z"
   id="path70"
   stroke="none"
   fill="#000000"
   opacity="1.000000" />
<path
   d=" M386.080994,301.310547   C387.695892,308.034668 385.559082,313.286530 380.379730,316.008057   C376.050842,318.282776 370.554504,317.351318 367.071198,313.752594   C363.122009,309.672577 362.588837,303.944061 365.662903,299.098633   C370.296692,291.794769 382.454498,292.334167 386.080994,301.310547  z"
   id="path72"
   stroke="none"
   fill="#000000"
   opacity="1.000000" />
<path
   d=" M556.328247,224.990387   C564.079224,228.716599 566.325439,235.084534 562.609558,241.801605   C559.372070,247.653870 552.642700,249.113403 546.809326,245.228470   C542.837708,242.583420 541.130737,236.999039 542.767334,232.005142   C544.463013,226.831329 548.867004,224.443817 556.328247,224.990387  z"
   id="path74"
   stroke="none"
   fill="#000000"
   opacity="1.000000" />
<path
   d=" M471.811951,191.450500   C467.180969,197.557983 461.832977,199.030045 456.483521,195.963303   C451.537292,193.127716 449.366516,187.396713 451.295868,182.267532   C453.570129,176.221375 459.734467,173.514938 465.971069,175.824402   C471.814270,177.988174 474.251343,184.166077 471.811951,191.450500  z"
   id="path76"
   stroke="none"
   fill="#000000"
   opacity="1.000000" />
</svg>