<?xml version="1.0" encoding="UTF-8" standalone="no"?>
<!-- Created with Inkscape (http://www.inkscape.org/) -->

<svg
   xmlns:dc="http://purl.org/dc/elements/1.1/"
   xmlns:cc="http://creativecommons.org/ns#"
   xmlns:rdf="http://www.w3.org/1999/02/22-rdf-syntax-ns#"
   xmlns:svg="http://www.w3.org/2000/svg"
   xmlns="http://www.w3.org/2000/svg"
   xmlns:sodipodi="http://sodipodi.sourceforge.net/DTD/sodipodi-0.dtd"
   xmlns:inkscape="http://www.inkscape.org/namespaces/inkscape"
   width="210mm"
   height="210mm"
   viewBox="0 0 210 210"
   version="1.1"
   id="svg10181"
   inkscape:version="0.92.5 (2060ec1f9f, 2020-04-08)"
   sodipodi:docname="Flogo.svg">
  <defs
     id="defs10175" />
  <sodipodi:namedview
     id="base"
     pagecolor="#ffffff"
     bordercolor="#666666"
     borderopacity="1.0"
     inkscape:pageopacity="0.0"
     inkscape:pageshadow="2"
     inkscape:zoom="0.49497475"
     inkscape:cx="-362.90414"
     inkscape:cy="607.91181"
     inkscape:document-units="mm"
     inkscape:current-layer="layer1"
     showgrid="false"
     inkscape:window-width="1848"
     inkscape:window-height="1016"
     inkscape:window-x="72"
     inkscape:window-y="27"
     inkscape:window-maximized="1" />
  <metadata
     id="metadata10178">
    <rdf:RDF>
      <cc:Work
         rdf:about="">
        <dc:format>image/svg+xml</dc:format>
        <dc:type
           rdf:resource="http://purl.org/dc/dcmitype/StillImage" />
        <dc:title></dc:title>
      </cc:Work>
    </rdf:RDF>
  </metadata>
  <g
     inkscape:label="Layer 1"
     inkscape:groupmode="layer"
     id="layer1"
     transform="translate(0,-87)">
    <g
       id="g18320"
       transform="matrix(3.2862307,0,0,-3.2862307,175.32024,105.49959)">
      <path
         d="m 0,0 c -2.022,2.001 -4.816,3.24 -7.903,3.24 h -24.835 c -3.086,0 -5.88,-1.239 -7.903,-3.24 -2.022,-2.001 -3.273,-4.767 -3.273,-7.821 v -36.867 c 0,-3.054 1.251,-5.819 3.273,-7.821 2.023,-2.001 4.817,-3.239 7.903,-3.239 3.086,0 5.88,1.238 7.903,3.239 2.022,2.002 3.273,4.767 3.273,7.821 v 7.383 h 4.346 c 3.087,0 5.881,1.238 7.903,3.24 2.022,2.001 3.273,4.766 3.273,7.82 0,1.009 -0.135,1.983 -0.388,2.906 -0.262,0.959 -0.649,1.861 -1.14,2.689 l -0.965,1.625 1.9,0.213 c 0.42,0.047 0.83,0.117 1.231,0.207 0.416,0.094 0.818,0.209 1.204,0.343 2.205,0.765 4.095,2.199 5.425,4.055 1.289,1.8 2.046,4.003 2.046,6.386 C 3.273,-4.767 2.022,-2.001 0,0 m -7.903,5.697 c 3.772,0 7.187,-1.513 9.659,-3.959 2.472,-2.446 4.001,-5.826 4.001,-9.559 0,-2.904 -0.93,-5.598 -2.512,-7.807 -1.62,-2.263 -3.93,-4.011 -6.628,-4.948 -0.418,-0.145 -0.84,-0.269 -1.266,-0.373 0.246,-0.568 0.452,-1.154 0.617,-1.756 0.31,-1.131 0.475,-2.318 0.475,-3.54 0,-3.732 -1.528,-7.112 -4,-9.558 -2.472,-2.447 -5.887,-3.96 -9.659,-3.96 h -1.863 v -4.925 c 0,-3.733 -1.528,-7.112 -4.001,-9.559 -2.471,-2.446 -5.886,-3.959 -9.658,-3.959 -3.772,0 -7.187,1.513 -9.658,3.959 -2.473,2.447 -4.001,5.826 -4.001,9.559 v 36.867 c 0,3.733 1.528,7.113 4.001,9.559 2.471,2.446 5.886,3.959 9.658,3.959 z"
         style="fill:#ffffff;fill-opacity:1;fill-rule:nonzero;stroke:none"
         id="path18322"
         inkscape:connector-curvature="0" />
    </g>
    <g
       id="g18324"
       transform="matrix(3.2862307,0,0,-3.2862307,61.964341,177.98922)">
      <path
         d="m 0,0 c -0.45,-0.445 -0.728,-1.059 -0.728,-1.738 v -20.887 c 0,-0.678 0.278,-1.293 0.728,-1.737 0.449,-0.445 1.07,-0.72 1.756,-0.72 0.686,0 1.307,0.275 1.756,0.72 0.449,0.444 0.728,1.059 0.728,1.737 V -1.738 C 4.24,-1.059 3.961,-0.445 3.512,0 3.063,0.445 2.442,0.72 1.756,0.72 1.07,0.72 0.449,0.445 0,0 m -3.211,-1.738 c 0,1.357 0.556,2.586 1.455,3.476 0.899,0.889 2.141,1.44 3.512,1.44 1.371,0 2.613,-0.551 3.512,-1.44 0.899,-0.89 1.455,-2.119 1.455,-3.476 v -20.887 c 0,-1.357 -0.556,-2.585 -1.455,-3.475 -0.899,-0.89 -2.141,-1.44 -3.512,-1.44 -1.371,0 -2.613,0.55 -3.512,1.44 -0.899,0.89 -1.455,2.118 -1.455,3.475 z"
         style="fill:#ffffff;fill-opacity:1;fill-rule:nonzero;stroke:none"
         id="path18326"
         inkscape:connector-curvature="0" />
    </g>
    <g
       id="g18328"
       transform="matrix(3.2862307,0,0,-3.2862307,156.41461,166.95275)">
      <path
         d="M 0,0 C 0.743,0 1.345,-0.596 1.345,-1.331 1.345,-2.066 0.743,-2.663 0,-2.663 h -10.061 c -0.743,0 -1.345,0.597 -1.345,1.332 0,0.735 0.602,1.331 1.345,1.331 z"
         style="fill:#ffffff;fill-opacity:1;fill-rule:nonzero;stroke:none"
         id="path18330"
         inkscape:connector-curvature="0" />
    </g>
    <g
       id="g18332"
       transform="matrix(3.2862307,0,0,-3.2862307,73.506278,125.48841)">
      <path
         d="M 0,0 C -0.449,0.445 -1.07,0.72 -1.756,0.72 -2.442,0.72 -3.063,0.445 -3.512,0 -3.962,-0.445 -4.24,-1.059 -4.24,-1.738 c 0,-0.679 0.278,-1.293 0.728,-1.738 0.449,-0.445 1.07,-0.72 1.756,-0.72 0.686,0 1.307,0.275 1.756,0.72 0.449,0.445 0.728,1.059 0.728,1.738 C 0.728,-1.059 0.45,-0.445 0,0 m -1.756,3.177 c 1.371,0 2.613,-0.55 3.512,-1.439 0.899,-0.89 1.455,-2.119 1.455,-3.476 0,-1.357 -0.556,-2.586 -1.455,-3.476 -0.899,-0.89 -2.141,-1.44 -3.512,-1.44 -1.371,0 -2.613,0.55 -3.512,1.44 -0.899,0.89 -1.455,2.119 -1.455,3.476 0,1.357 0.556,2.586 1.455,3.476 0.899,0.889 2.14,1.439 3.512,1.439"
         style="fill:#ffffff;fill-opacity:1;fill-rule:nonzero;stroke:none"
         id="path18334"
         inkscape:connector-curvature="0" />
    </g>
  </g>
</svg>
